<svg width="328" height="306" viewBox="0 0 328 306" fill="none" xmlns="http://www.w3.org/2000/svg">
<path d="M233.998 305.635C259.851 305.635 280.809 302.452 280.809 298.526C280.809 294.6 259.851 291.417 233.998 291.417C208.145 291.417 187.188 294.6 187.188 298.526C187.188 302.452 208.145 305.635 233.998 305.635Z" fill="#F5F5F5"/>
<path opacity="0.5" d="M233.998 305.635C259.851 305.635 280.809 302.452 280.809 298.526C280.809 294.6 259.851 291.417 233.998 291.417C208.145 291.417 187.188 294.6 187.188 298.526C187.188 302.452 208.145 305.635 233.998 305.635Z" fill="white"/>
<path d="M91.311 295.295C110.746 295.295 126.502 292.112 126.502 288.186C126.502 284.26 110.746 281.077 91.311 281.077C71.8756 281.077 56.1201 284.26 56.1201 288.186C56.1201 292.112 71.8756 295.295 91.311 295.295Z" fill="#F5F5F5"/>
<path opacity="0.5" d="M91.311 295.295C110.746 295.295 126.502 292.112 126.502 288.186C126.502 284.26 110.746 281.077 91.311 281.077C71.8756 281.077 56.1201 284.26 56.1201 288.186C56.1201 292.112 71.8756 295.295 91.311 295.295Z" fill="white"/>
<path d="M74.2005 269.723L92.1194 262.256C90.8681 260.202 89.6167 261.173 88.0164 257.849C87.1651 256.144 87.9142 253.4 86.8416 251.201C85.9904 249.402 83.343 248.26 82.3215 246.197C81.3936 244.339 82.0661 241.569 81.0616 239.566C80.0571 237.563 77.4778 236.574 76.4733 234.622C75.4689 232.67 76.1243 229.925 75.1113 228.008C74.0983 226.09 71.4509 225.033 70.4379 223.14C69.4249 221.248 69.9612 218.41 68.9227 216.56C67.8842 214.711 65.1516 213.637 64.1046 211.855C62.9299 209.861 63.364 207.039 62.2829 205.343C60.9635 203.28 58.2139 202.53 57.0987 201.081C55.0047 198.354 53.881 195.353 52.8425 195.558C51.8039 195.762 52.7063 198.78 53.2766 202.377C53.566 204.167 52.221 206.639 52.8169 209.034C53.2936 210.96 55.6431 212.563 56.29 214.762C56.8604 216.731 55.7197 219.33 56.3922 221.453C57.0647 223.575 59.4312 224.93 60.1207 227.002C60.8102 229.073 59.7291 231.656 60.4272 233.693C61.1252 235.73 63.5768 237.153 64.2833 239.157C64.9899 241.16 63.9939 243.862 64.709 245.839C65.424 247.817 67.9352 249.317 68.6418 251.252C69.4335 253.391 68.4545 256.051 69.1525 257.917C70.0038 260.185 72.498 261.565 73.1534 263.279C74.575 267.021 72.5746 266.952 73.7493 269.953L74.2005 269.723Z" fill="#2E353A"/>
<path d="M54.9023 201.601L81.5467 265.691" stroke="white" stroke-width="0.27893" stroke-miterlimit="10"/>
<path d="M60.4949 207.159L58.6221 210.892L54.9106 208.702" stroke="white" stroke-width="0.27893" stroke-miterlimit="10"/>
<path d="M65.126 218.308L63.2618 222.05L59.5503 219.859" stroke="white" stroke-width="0.27893" stroke-miterlimit="10"/>
<path d="M69.4929 228.801L67.6287 232.543L63.9087 230.352" stroke="white" stroke-width="0.27893" stroke-miterlimit="10"/>
<path d="M74.6858 241.279L72.813 245.021L69.1016 242.831" stroke="white" stroke-width="0.27893" stroke-miterlimit="10"/>
<path d="M79.9292 253.895L78.065 257.636L74.3535 255.446" stroke="white" stroke-width="0.27893" stroke-miterlimit="10"/>
<path d="M72.174 264.771L101.406 263.842C100.734 260.279 98.4608 260.978 98.0012 255.446C97.7628 252.65 100.231 249.113 99.8909 245.447C99.61 242.43 96.537 239.43 96.1965 235.978C95.89 232.866 98.3161 229.321 97.9671 225.962C97.6266 222.791 94.511 219.834 94.145 216.544C93.7789 213.253 96.1539 209.725 95.7624 206.494C95.3708 203.264 92.1956 200.348 91.77 197.118C91.3443 193.887 93.6257 190.197 93.149 187.043C92.6553 183.702 89.4035 180.897 88.8927 177.82C88.3053 174.411 90.425 170.643 89.8036 167.694C89.0459 164.072 85.5473 161.54 84.7811 158.881C83.3 153.92 83.3085 149.087 81.7336 148.823C80.1588 148.558 79.8183 153.28 78.7202 158.608C78.1669 161.284 74.9406 164.08 74.515 167.745C74.166 170.711 76.6176 174.223 76.3452 177.658C76.0983 180.744 73.1104 183.795 72.9402 187.137C72.7614 190.29 75.3748 193.674 75.23 196.965C75.0853 200.255 72.1996 203.298 72.0974 206.545C71.9953 209.793 74.6512 213.1 74.6086 216.305C74.5661 219.51 71.6888 222.783 71.6377 225.945C71.5867 229.286 74.3277 232.568 74.2937 235.671C74.2937 239.08 71.4675 242.336 71.459 245.345C71.459 248.985 74.2171 252.258 74.2256 255.037C74.2256 261.054 71.4505 259.895 71.5015 264.745L72.174 264.771Z" fill="#2E353A"/>
<path d="M81.3594 158.489L84.6878 263.024" stroke="white" stroke-width="0.420215" stroke-miterlimit="10"/>
<path d="M86.2714 169.305L81.6406 173.567L77.5801 168.495" stroke="white" stroke-width="0.420215" stroke-miterlimit="10"/>
<path d="M86.85 187.494L82.2192 191.764L78.1587 186.693" stroke="white" stroke-width="0.420215" stroke-miterlimit="10"/>
<path d="M87.3949 204.61L82.7641 208.872L78.7036 203.8" stroke="white" stroke-width="0.420215" stroke-miterlimit="10"/>
<path d="M88.0417 224.965L83.4109 229.236L79.3589 224.164" stroke="white" stroke-width="0.420215" stroke-miterlimit="10"/>
<path d="M88.6972 245.541L84.0664 249.811L80.0059 244.74" stroke="white" stroke-width="0.420215" stroke-miterlimit="10"/>
<path d="M89.7782 199.019C91.2764 200.05 95.3113 200.723 95.3199 200.723C95.3284 200.723 94.9623 197.928 94.9198 197.749C94.392 195.728 92.1957 192.14 89.8718 192.012C89.4846 192 89.0992 192.07 88.7408 192.217C88.3823 192.364 88.0588 192.585 87.7914 192.866C87.524 193.147 87.3186 193.481 87.1886 193.846C87.0587 194.211 87.0071 194.6 87.0371 194.987C87.1052 196.649 88.4928 198.132 89.7782 199.019Z" fill="#2E353A"/>
<path d="M130.239 207.79C130.239 207.79 131.49 205.232 131.55 205.088C132.222 203.119 132.401 198.908 130.503 197.51C130.186 197.287 129.826 197.133 129.446 197.058C129.066 196.983 128.674 196.99 128.297 197.076C127.92 197.163 127.565 197.329 127.255 197.562C126.946 197.795 126.689 198.091 126.502 198.431C125.65 199.845 125.991 201.84 126.57 203.289C127.293 204.985 130.239 207.79 130.239 207.79Z" fill="#2E353A"/>
<path d="M145.059 195.541C142.829 194.859 139.517 197.45 138.326 199.164C138.223 199.309 136.87 201.806 136.912 201.815H136.964C136.436 202.215 135.882 202.667 135.261 203.153C134.163 204.073 132.92 205.13 131.652 206.366C130.27 207.682 128.965 209.076 127.744 210.543C126.372 212.181 125.147 213.939 124.084 215.793V215.862C124.229 215.197 124.561 213.304 124.569 213.168C124.697 211.088 123.718 206.988 121.556 206.136C121.19 206.003 120.801 205.948 120.413 205.976C120.026 206.004 119.648 206.114 119.306 206.298C118.963 206.483 118.664 206.737 118.427 207.046C118.189 207.354 118.02 207.709 117.929 208.088C117.487 209.673 118.347 211.497 119.283 212.75C120.347 214.148 123.692 215.955 123.965 216.1C122.929 218.027 122.022 220.02 121.249 222.067C120.798 223.252 120.398 224.453 119.964 225.672C120.066 225.093 120.16 224.564 120.16 224.496C120.287 222.416 119.308 218.316 117.155 217.464C116.791 217.332 116.403 217.279 116.016 217.307C115.63 217.335 115.254 217.444 114.913 217.627C114.571 217.811 114.273 218.064 114.036 218.371C113.798 218.677 113.629 219.031 113.537 219.407C113.086 220.993 113.946 222.817 114.882 224.07C115.818 225.323 118.661 226.925 119.419 227.335L118.959 228.741C118.236 230.983 117.529 233.233 116.772 235.415C116.499 236.182 116.21 236.932 115.92 237.674C116.006 237.162 116.082 236.719 116.091 236.659C116.218 234.571 115.239 230.48 113.077 229.627C112.713 229.494 112.325 229.439 111.938 229.467C111.551 229.494 111.175 229.604 110.833 229.787C110.492 229.971 110.193 230.224 109.956 230.532C109.719 230.839 109.55 231.193 109.459 231.571C109.017 233.156 109.868 234.98 110.813 236.233C111.758 237.486 114.32 238.935 115.205 239.43C114.89 240.18 114.567 240.947 114.226 241.663C113.98 242.149 113.775 242.635 113.503 243.112C113.23 243.589 112.984 244.058 112.728 244.518C112.2 245.371 111.656 246.308 111.119 247.161C110.753 247.749 110.396 248.303 110.03 248.865C110.302 248.098 110.813 246.598 110.881 246.47C111.202 244.665 111.055 242.807 110.455 241.075C110.505 240.874 110.533 240.668 110.541 240.461C110.566 240.074 110.51 239.686 110.375 239.322C110.241 238.959 110.032 238.627 109.761 238.35C109.491 238.072 109.165 237.855 108.805 237.712C108.445 237.569 108.059 237.504 107.672 237.52C105.348 237.682 103.186 241.296 102.692 243.316C102.692 243.436 102.488 244.766 102.385 245.609C102.385 245.106 102.385 244.621 102.334 244.101C102.334 243.078 102.215 242.055 102.147 240.955C102.088 240.427 102.036 239.89 101.977 239.353C101.917 238.816 101.824 238.253 101.747 237.699C101.543 236.412 101.27 235.142 100.964 233.83C101.866 233.83 105.041 233.608 106.437 232.909C107.834 232.21 109.408 230.94 109.715 229.321C109.798 228.942 109.801 228.55 109.724 228.17C109.646 227.79 109.489 227.431 109.263 227.115C109.038 226.8 108.748 226.536 108.414 226.34C108.08 226.145 107.708 226.022 107.323 225.979C104.999 225.783 102.326 229.031 101.526 230.949C101.475 231.076 101.058 232.517 100.836 233.318C100.649 232.542 100.47 231.767 100.257 230.983C99.6359 228.741 98.9379 226.482 98.2484 224.223L97.6355 222.152C97.9504 222.152 101.739 222.007 103.305 221.223C104.692 220.533 106.276 219.254 106.574 217.635C106.659 217.256 106.663 216.865 106.586 216.485C106.51 216.105 106.354 215.745 106.129 215.43C105.904 215.114 105.615 214.85 105.281 214.654C104.947 214.458 104.575 214.335 104.19 214.293C101.866 214.097 99.1847 217.345 98.3846 219.271C98.325 219.416 97.7206 221.496 97.5929 222.033C97.1502 220.507 96.7416 218.99 96.3501 217.473C95.8422 215.428 95.4697 213.352 95.2349 211.259C95.3796 211.259 99.3295 211.131 100.938 210.33C102.326 209.639 103.909 208.361 104.207 206.741C104.292 206.363 104.296 205.971 104.22 205.591C104.143 205.211 103.987 204.852 103.762 204.537C103.537 204.221 103.248 203.957 102.914 203.761C102.58 203.565 102.208 203.442 101.824 203.4C99.4997 203.204 96.8182 206.451 96.0181 208.369C95.967 208.497 95.5073 210.074 95.303 210.841H95.1753C94.9877 208.729 94.9877 206.604 95.1753 204.491C95.269 203.332 95.4222 202.224 95.5924 201.15C96.333 201.201 99.7125 201.405 101.236 200.843C102.76 200.28 104.403 199.215 104.88 197.638C105.005 197.271 105.052 196.881 105.017 196.494C104.981 196.108 104.865 195.733 104.676 195.394C104.486 195.056 104.227 194.761 103.916 194.529C103.605 194.297 103.249 194.134 102.871 194.049C100.581 193.598 97.5674 196.53 96.5629 198.354C96.5033 198.456 96.0606 199.522 95.7116 200.306C95.7967 199.828 95.8734 199.326 95.967 198.865C96.3075 197.161 96.7246 195.567 97.1077 194.186C97.329 193.402 97.5418 192.694 97.7546 192.038C98.5037 191.705 101.517 190.333 102.59 189.174C103.662 188.015 104.65 186.267 104.352 184.639C104.293 184.259 104.155 183.896 103.947 183.572C103.739 183.249 103.467 182.972 103.146 182.76C102.826 182.549 102.464 182.406 102.086 182.342C101.707 182.278 101.319 182.294 100.947 182.389C98.7166 183.045 97.3886 187.034 97.329 189.123C97.329 189.302 97.5759 192.123 97.6184 192.106C97.4056 192.737 97.1758 193.41 96.9545 194.16C96.5373 195.533 96.1032 197.092 95.7116 198.831C95.2826 200.692 94.9642 202.576 94.7582 204.474C94.5104 206.598 94.4563 208.741 94.5965 210.875C94.5923 210.901 94.5923 210.927 94.5965 210.952C94.3411 210.321 93.5835 208.565 93.5069 208.437C92.4768 206.63 89.4038 203.741 87.131 204.227C86.7546 204.319 86.4017 204.489 86.0952 204.726C85.7887 204.963 85.5353 205.262 85.3516 205.604C85.1678 205.945 85.0577 206.322 85.0284 206.708C84.9991 207.095 85.0513 207.484 85.1816 207.849C85.6838 209.418 87.4119 210.483 88.876 210.995C90.536 211.574 94.3241 211.233 94.622 211.199C94.813 213.37 95.1515 215.526 95.635 217.652C95.8989 218.888 96.2139 220.132 96.5459 221.368C96.3075 220.822 96.0947 220.345 96.0606 220.277C95.0221 218.47 91.9576 215.589 89.6762 216.075C89.2991 216.166 88.9455 216.335 88.6382 216.572C88.331 216.809 88.0771 217.108 87.8931 217.45C87.7092 217.792 87.5993 218.169 87.5706 218.556C87.542 218.943 87.5952 219.332 87.7268 219.697C88.2291 221.266 89.9571 222.323 91.4298 222.843C92.9025 223.362 96.1543 223.132 97.0055 223.064C97.1417 223.533 97.2609 224.01 97.3971 224.479C98.0356 226.755 98.6825 229.022 99.2443 231.255C99.4486 232.048 99.6104 232.832 99.7806 233.616C99.5763 233.139 99.3976 232.764 99.3635 232.67C98.325 230.863 95.2605 227.982 92.9791 228.468C92.6027 228.56 92.2499 228.73 91.9433 228.968C91.6368 229.205 91.3835 229.504 91.1997 229.845C91.0159 230.187 90.9058 230.563 90.8766 230.95C90.8473 231.337 90.8994 231.725 91.0297 232.091C91.5319 233.659 93.26 234.725 94.7327 235.236C96.2053 235.747 99.1422 235.551 100.155 235.466C100.308 236.276 100.462 237.086 100.564 237.878C100.632 238.415 100.726 238.935 100.76 239.481C100.794 240.026 100.845 240.555 100.887 241.092C100.938 242.115 100.989 243.172 101.006 244.169C101.006 244.868 101.006 245.533 101.006 246.198C100.819 245.413 100.419 243.879 100.368 243.751C99.6189 241.808 97.0226 238.492 94.6986 238.637C94.3129 238.671 93.9384 238.785 93.5996 238.973C93.2607 239.16 92.965 239.417 92.7315 239.726C92.498 240.036 92.3319 240.391 92.2441 240.768C92.1562 241.146 92.1485 241.538 92.2215 241.919C92.4854 243.547 94.0261 244.859 95.4052 245.592C96.9119 246.394 100.564 246.641 101.015 246.666C101.015 247.774 101.015 248.848 101.015 249.863C100.964 253.051 100.811 255.744 100.666 257.739L102.207 258.045C102.309 256 102.411 253.195 102.402 249.871C102.402 248.746 102.402 247.553 102.334 246.317C103.486 246.102 104.623 245.818 105.739 245.464C106.667 246.965 109.383 249.036 109.732 249.3C109.127 250.229 108.532 251.124 107.961 251.96C106.174 254.559 104.556 256.699 103.356 258.284L105.058 258.608C106.191 257.057 107.612 255.071 109.119 252.727C109.74 251.789 110.379 250.775 111.026 249.726C111.443 249.897 114.822 251.303 116.533 251.252C118.091 251.201 120.058 250.707 121.011 249.36C121.245 249.052 121.411 248.698 121.5 248.321C121.588 247.944 121.596 247.553 121.524 247.173C121.452 246.793 121.301 246.432 121.08 246.115C120.86 245.797 120.575 245.529 120.245 245.328C118.21 244.177 114.422 246.001 112.89 247.408C112.796 247.493 111.92 248.507 111.375 249.113C111.639 248.678 111.894 248.26 112.158 247.817C112.694 246.965 113.196 246.053 113.741 245.098L114.482 243.666C114.746 243.197 114.959 242.66 115.197 242.157C115.733 240.972 116.218 239.745 116.678 238.501C117.453 238.969 120.202 240.572 121.786 240.759C123.369 240.947 125.352 240.759 126.493 239.575C126.772 239.306 126.991 238.981 127.137 238.621C127.282 238.262 127.35 237.876 127.336 237.488C127.323 237.1 127.228 236.72 127.057 236.372C126.887 236.023 126.646 235.715 126.348 235.466C124.518 234.017 120.492 235.245 118.764 236.412C118.661 236.48 117.512 237.452 116.891 237.998C117.163 237.248 117.436 236.506 117.691 235.73C118.406 233.514 119.07 231.247 119.743 228.988C119.947 228.298 120.16 227.607 120.373 226.925C120.645 227.087 123.871 229.065 125.608 229.278C127.157 229.465 129.175 229.278 130.315 228.093C130.594 227.824 130.813 227.499 130.959 227.14C131.104 226.78 131.172 226.394 131.158 226.007C131.145 225.619 131.05 225.239 130.879 224.89C130.709 224.542 130.468 224.233 130.17 223.985C128.34 222.536 124.314 223.763 122.586 224.931C122.458 225.016 120.807 226.422 120.407 226.798C120.866 225.28 121.343 223.772 121.879 222.306C122.582 220.322 123.412 218.385 124.365 216.509C124.493 216.586 127.855 218.666 129.634 218.879C131.183 219.075 133.201 218.879 134.342 217.694C134.621 217.425 134.84 217.1 134.985 216.741C135.13 216.381 135.198 215.995 135.185 215.608C135.171 215.22 135.076 214.84 134.906 214.491C134.736 214.143 134.494 213.834 134.197 213.586C132.367 212.145 128.34 213.373 126.612 214.532C126.502 214.609 125.242 215.674 124.654 216.237L124.552 216.151C125.565 214.289 126.742 212.521 128.068 210.867C128.783 209.955 129.524 209.111 130.256 208.31C130.843 208.753 133.55 210.79 135.133 211.165C136.717 211.54 138.675 211.549 139.943 210.5C140.249 210.263 140.502 209.963 140.685 209.622C140.868 209.28 140.977 208.904 141.005 208.517C141.034 208.13 140.98 207.742 140.848 207.377C140.716 207.012 140.51 206.68 140.241 206.4C138.581 204.764 134.452 205.548 132.58 206.503C132.477 206.562 131.515 207.202 130.826 207.687C131.158 207.329 131.498 206.954 131.83 206.622C133.073 205.369 134.282 204.286 135.363 203.349C135.976 202.812 136.546 202.343 137.066 201.917C137.874 202.053 141.135 202.582 142.675 202.198C144.216 201.815 146.004 200.911 146.642 199.394C146.817 199.04 146.915 198.654 146.929 198.26C146.943 197.865 146.872 197.473 146.723 197.108C146.573 196.743 146.347 196.415 146.06 196.145C145.773 195.874 145.432 195.669 145.059 195.541Z" fill="#2E353A"/>
<path d="M123.999 257.389H60.6401V265.785H123.999V257.389Z" fill="#2E353A"/>
<path d="M114.039 289.924H70.5912L65.1602 264.856H119.47L114.039 289.924Z" fill="#2E353A"/>
<path d="M61.1758 130.352L60.5373 190.819C60.5373 190.819 57.9836 192.106 50.9011 192.106C43.8186 192.106 41.2649 190.819 41.2649 190.819L43.8186 166.373C43.8186 166.373 34.8379 164.447 34.8379 161.89C34.8379 159.333 54.7488 88.5859 54.7488 88.5859C54.7488 88.5859 65.032 106.545 61.1758 130.352Z" fill="#F5F5F5" stroke="#2E353A" stroke-width="0.772983" stroke-miterlimit="10"/>
<path d="M43.8276 166.364L52.1529 127.836" stroke="#2E353A" stroke-width="0.772983" stroke-miterlimit="10"/>
<path d="M47.0454 88.5338C47.0454 88.5338 58.6055 103.97 59.8909 110.406C61.1763 116.841 61.1763 130.351 61.1763 130.351C64.9461 120.883 67.326 110.917 68.2417 100.765C69.5271 84.6811 56.6816 76.3193 56.6816 76.3193L47.0454 88.5338Z" fill="#2E353A" stroke="#2E353A" stroke-width="0.772983" stroke-miterlimit="10"/>
<path d="M264.277 130.352L264.916 190.819C264.916 190.819 267.47 192.106 274.552 192.106C281.635 192.106 284.188 190.819 284.188 190.819L281.635 166.373C281.635 166.373 290.615 164.447 290.615 161.89C290.615 159.333 270.696 88.5859 270.696 88.5859C270.696 88.5859 260.421 106.545 264.277 130.352Z" fill="#F5F5F5" stroke="#2E353A" stroke-width="0.772983" stroke-miterlimit="10"/>
<path d="M281.617 166.365L273.896 121.564" stroke="#2E353A" stroke-width="0.772983" stroke-miterlimit="10"/>
<path d="M278.408 88.5345C278.408 88.5345 266.839 103.971 265.554 110.406C264.269 116.842 264.277 130.343 264.277 130.343C260.502 120.876 258.119 110.91 257.203 100.758C255.918 84.6733 268.772 76.3115 268.772 76.3115L278.408 88.5345Z" fill="#2E353A" stroke="#2E353A" stroke-width="0.772983" stroke-miterlimit="10"/>
<path d="M278.314 88.534C243.298 67.7976 203.362 56.8579 162.68 56.8579C121.998 56.8579 82.0619 67.7976 47.0452 88.534L26.7683 54.2005C25.3126 51.7627 26.6831 48.2339 29.8753 46.478C70.4585 23.7612 116.177 11.834 162.671 11.834C209.165 11.834 254.884 23.7612 295.467 46.478C298.651 48.2595 300.03 51.7627 298.574 54.2005L278.314 88.534Z" fill="#F5F5F5"/>
<path d="M278.314 88.534C243.298 67.7976 203.362 56.8579 162.68 56.8579C121.998 56.8579 82.0619 67.7976 47.0452 88.534L26.7683 54.2005C25.3126 51.7627 26.6831 48.2339 29.8753 46.478C70.4585 23.7612 116.177 11.834 162.671 11.834C209.165 11.834 254.884 23.7612 295.467 46.478C298.651 48.2595 300.03 51.7627 298.574 54.2005L278.314 88.534Z" stroke="#2E353A" stroke-width="0.772983" stroke-miterlimit="10"/>
<path d="M76.3487 59.8644C75.7681 60.0506 75.2503 60.0626 74.7952 59.9002C74.3617 59.7309 73.9411 59.3796 73.5334 58.8463L60.692 41.9398C60.2353 41.3273 60.0925 40.7327 60.2637 40.1561C60.4564 39.5725 60.9506 39.1531 61.7463 38.8979C62.3269 38.7117 62.8233 38.7067 63.2353 38.8829C63.6404 39.0375 64.0326 39.3742 64.412 39.8929L75.7296 55.2603L74.4393 55.6742L75.0027 36.5319C75.0319 35.8822 75.1631 35.3657 75.3963 34.9827C75.6294 34.5996 76.004 34.3253 76.5201 34.1597C77.0362 33.9942 77.4896 34.003 77.8801 34.1861C78.2706 34.3691 78.6697 34.7273 79.0774 35.2607L90.4389 50.5428L89.3099 50.9049L89.7017 31.7821C89.7163 31.1608 89.8402 30.6586 90.0733 30.2755C90.3065 29.8924 90.7026 29.6112 91.2617 29.4319C91.9499 29.2112 92.5309 29.2857 93.0049 29.6555C93.4788 30.0253 93.7076 30.5923 93.6912 31.3564L92.9949 52.6403C92.9656 53.29 92.8236 53.8099 92.569 54.1999C92.3144 54.5898 91.8967 54.8779 91.3161 55.0642C90.7355 55.2504 90.2284 55.2589 89.7949 55.0896C89.3614 54.9203 88.9407 54.569 88.533 54.0357L77.8011 39.8323L78.5431 39.5943L77.9952 57.4509C77.966 58.1006 77.824 58.6205 77.5694 59.0105C77.3362 59.3936 76.9294 59.6782 76.3487 59.8644Z" fill="#2E353A"/>
<path d="M108.429 50.1143C107.699 50.271 107.094 50.2039 106.615 49.9131C106.154 49.5955 105.845 49.0714 105.689 48.341L101.646 29.4502C101.489 28.7198 101.559 28.1261 101.855 27.6691C102.168 27.1853 102.69 26.865 103.42 26.7083L115.271 24.1654C115.824 24.0467 116.276 24.1004 116.625 24.3264C116.996 24.5476 117.239 24.9238 117.353 25.455C117.471 26.0084 117.408 26.4732 117.165 26.8496C116.939 27.199 116.549 27.4331 115.996 27.5518L105.971 29.7029L107.349 36.1437L116.644 34.1493C117.219 34.0259 117.682 34.0771 118.031 34.3031C118.38 34.5292 118.614 34.9188 118.732 35.4722C118.851 36.0255 118.797 36.4769 118.571 36.8264C118.345 37.1758 117.944 37.4123 117.369 37.5357L108.074 39.5301L109.53 46.3361L119.555 44.185C120.109 44.0663 120.56 44.12 120.909 44.346C121.281 44.5672 121.525 44.9545 121.644 45.5079C121.762 46.0612 121.697 46.515 121.449 46.8692C121.223 47.2186 120.833 47.4527 120.28 47.5715L108.429 50.1143Z" fill="#2E353A"/>
<path d="M130.426 45.9148C129.733 46.0059 129.172 45.8864 128.742 45.5563C128.309 45.2038 128.047 44.681 127.956 43.9879L125.418 24.6367C125.325 23.9212 125.433 23.3611 125.744 22.9564C126.074 22.5263 126.586 22.2657 127.279 22.1746C127.972 22.0834 128.522 22.2044 128.93 22.5375C129.357 22.8452 129.617 23.3568 129.711 24.0723L132.06 41.9814L141.785 40.7026C142.389 40.6233 142.868 40.7195 143.222 40.9914C143.598 41.2603 143.824 41.6854 143.901 42.2667C143.977 42.8481 143.869 43.3284 143.578 43.7079C143.306 44.0621 142.868 44.2789 142.265 44.3582L130.426 45.9148Z" fill="#2E353A"/>
<path d="M160.561 43.3562C158.078 43.4452 155.927 43.0251 154.109 42.0959C152.312 41.1434 150.907 39.7701 149.894 37.9759C148.88 36.1592 148.328 33.9983 148.239 31.4931C148.172 29.6198 148.382 27.9287 148.871 26.4197C149.358 24.8881 150.091 23.5738 151.069 22.4766C152.046 21.3569 153.257 20.4886 154.704 19.8718C156.173 19.2316 157.833 18.8784 159.683 18.812C160.925 18.7675 162.149 18.8818 163.356 19.1549C164.564 19.428 165.629 19.8418 166.553 20.3963C167.038 20.6727 167.367 21.0225 167.54 21.4456C167.712 21.8462 167.761 22.2512 167.685 22.6607C167.608 23.0476 167.428 23.3818 167.145 23.6631C166.883 23.9436 166.539 24.1142 166.112 24.1747C165.707 24.2118 165.25 24.0813 164.742 23.7831C164.026 23.3568 163.259 23.0566 162.439 22.8826C161.619 22.7086 160.792 22.6366 159.957 22.6665C158.354 22.724 157.012 23.0997 155.929 23.7939C154.847 24.488 154.046 25.4659 153.526 26.7274C153.006 27.989 152.778 29.5225 152.843 31.328C152.906 33.111 153.243 34.6243 153.852 35.868C154.462 37.1117 155.331 38.0409 156.461 38.6558C157.59 39.2707 158.956 39.5494 160.558 39.492C161.416 39.4612 162.258 39.3293 163.086 39.0963C163.913 38.8407 164.691 38.4738 165.42 37.9957C165.906 37.6845 166.341 37.5446 166.727 37.576C167.134 37.584 167.477 37.7073 167.757 37.9459C168.037 38.1844 168.228 38.4939 168.332 38.8744C168.436 39.2322 168.427 39.6167 168.306 40.0278C168.184 40.4164 167.925 40.7646 167.53 41.0726C166.65 41.7594 165.585 42.3061 164.334 42.7125C163.105 43.0955 161.847 43.3101 160.561 43.3562Z" fill="#2E353A"/>
<path d="M185.3 43.8346C182.996 43.627 181.021 42.9367 179.373 41.7637C177.748 40.5928 176.544 39.0499 175.76 37.1351C174.978 35.1978 174.698 32.987 174.921 30.5027C175.09 28.6283 175.512 26.9702 176.188 25.5285C176.866 24.0642 177.75 22.8461 178.839 21.8742C179.952 20.8817 181.235 20.1663 182.686 19.7279C184.161 19.2689 185.768 19.1178 187.507 19.2745C189.833 19.4841 191.809 20.1744 193.434 21.3454C195.061 22.4937 196.267 24.0253 197.051 25.9401C197.835 27.8549 198.115 30.0544 197.892 32.5386C197.723 34.4131 197.3 36.0825 196.622 37.5468C195.944 39.011 195.048 40.2394 193.935 41.2319C192.843 42.2263 191.56 42.9531 190.085 43.412C188.634 43.8505 187.039 43.9913 185.3 43.8346ZM185.635 40.1082C187.103 40.2405 188.375 40.0137 189.452 39.4278C190.552 38.8439 191.431 37.9327 192.089 36.6943C192.769 35.4578 193.189 33.9476 193.35 32.1634C193.593 29.4534 193.172 27.2981 192.087 25.6977C191.024 24.0992 189.386 23.2003 187.172 23.0009C185.727 22.8706 184.455 23.0974 183.355 23.6813C182.257 24.2427 181.368 25.1415 180.688 26.3779C180.032 27.5938 179.623 29.1051 179.461 30.9118C179.219 33.5993 179.64 35.7546 180.724 37.3776C181.807 39.0006 183.444 39.9108 185.635 40.1082Z" fill="#2E353A"/>
<path d="M205.743 46.3126C205.129 46.1639 204.699 45.8742 204.455 45.4433C204.21 45.0124 204.162 44.4895 204.31 43.8748L209.085 24.0833C209.238 23.4467 209.531 23.0062 209.961 22.7618C210.397 22.4955 210.922 22.4367 211.537 22.5853C212.086 22.718 212.487 22.9313 212.742 23.2252C213.023 23.5024 213.235 23.9254 213.377 24.494L217.879 41.5106L216.825 41.2557L228.588 28.1734C228.974 27.7321 229.344 27.4499 229.699 27.3266C230.059 27.1814 230.514 27.1752 231.062 27.3079C231.677 27.4566 232.107 27.7464 232.351 28.1773C232.601 28.5862 232.649 29.109 232.495 29.7457L227.721 49.5372C227.573 50.1519 227.291 50.5951 226.877 50.8667C226.485 51.1436 225.971 51.2051 225.335 51.0511C224.72 50.9025 224.29 50.6127 224.046 50.1818C223.801 49.7509 223.753 49.2281 223.901 48.6134L227.58 33.3664L228.304 33.5416L218.347 44.4817C218.037 44.8018 217.741 45.0205 217.457 45.1377C217.173 45.2549 216.823 45.2631 216.405 45.1622C215.988 45.0614 215.669 44.8913 215.448 44.6519C215.233 44.3906 215.068 44.0604 214.955 43.6614L211.026 29.3276L211.816 29.5187L208.13 44.7987C207.982 45.4134 207.7 45.8565 207.286 46.1282C206.894 46.4051 206.38 46.4666 205.743 46.3126Z" fill="#2E353A"/>
<path d="M240.935 55.6312C240.24 55.3618 239.772 54.9747 239.531 54.4697C239.32 53.9518 239.349 53.3452 239.617 52.6501L246.567 34.6714C246.836 33.9763 247.219 33.519 247.715 33.2997C248.241 33.0674 248.851 33.086 249.546 33.3553L260.822 37.7257C261.348 37.9298 261.696 38.2218 261.863 38.6017C262.052 38.9898 262.049 39.4366 261.854 39.9422C261.65 40.4688 261.344 40.8224 260.935 41.0031C260.556 41.1708 260.103 41.1527 259.576 40.9486L250.037 37.2515L247.668 43.3813L256.512 46.8091C257.059 47.0213 257.417 47.3174 257.585 47.6973C257.753 48.0773 257.735 48.5305 257.531 49.0571C257.328 49.5838 257.036 49.9309 256.656 50.0987C256.277 50.2664 255.813 50.2442 255.266 50.032L246.422 46.6042L243.918 53.0816L253.457 56.7787C253.983 56.9828 254.33 57.2747 254.498 57.6547C254.687 58.0428 254.68 58.5001 254.476 59.0268C254.273 59.5534 253.971 59.8965 253.57 60.056C253.19 60.2238 252.737 60.2056 252.211 60.0016L240.935 55.6312Z" fill="#2E353A"/>
<path d="M236.407 128.306C236.407 128.306 225.579 120.294 220.378 116.373C215.177 112.452 206.264 101.2 204.034 96.2567C202.931 93.7116 201.692 91.2276 200.322 88.8155C200.322 88.8155 201.352 83.8461 201.352 82.6187C201.352 81.3913 200.356 79.7718 199.727 78.7319C199.412 78.212 197.173 75.2372 197.173 77.5045C197.173 79.2774 198.237 80.1639 198.237 81.2294C196.804 80.4367 195.623 79.2548 194.832 77.8199C193.589 75.5185 193.061 74.6235 192.346 75.1605C191.078 76.1151 192.704 78.57 192.704 78.57C192.704 78.57 192.346 75.1605 190.576 75.723C189.554 76.0299 190.933 78.9194 191.64 80.1639C192.346 81.4084 191.282 79.3115 191.461 81.4084C191.589 82.9682 193.368 86.8039 195.011 88.6876C195.606 89.378 196.994 89.1649 197.139 89.4036C197.667 90.256 203.344 103.434 207.243 110.005C211.142 116.577 213.457 118.529 216.65 121.726C219.842 124.922 224.098 130.428 227.818 133.088C231.538 135.747 233.496 134.69 235.624 132.909C237.752 131.127 238.067 130.113 236.407 128.306Z" fill="white" stroke="#2E353A" stroke-width="0.772983" stroke-linecap="round" stroke-linejoin="round"/>
<path d="M198.177 81.2212C198.177 81.2212 196.577 84.2471 197.326 85.483" stroke="#2E353A" stroke-width="0.772983" stroke-linecap="round" stroke-linejoin="round"/>
<path d="M192.678 78.5615L194.1 81.2209" stroke="#2E353A" stroke-width="0.772983" stroke-linecap="round" stroke-linejoin="round"/>
<path d="M194.27 87.2643C193.048 85.7121 191.979 84.0451 191.077 82.2865C190.371 80.5136 190.907 76.6097 191.971 77.3172C193.035 78.0246 192.678 81.937 192.678 81.937L194.806 84.4174" fill="white"/>
<path d="M194.27 87.2643C193.048 85.7121 191.979 84.0451 191.077 82.2865C190.371 80.5136 190.907 76.6097 191.971 77.3172C193.035 78.0246 192.678 81.937 192.678 81.937L194.806 84.4174" stroke="#2E353A" stroke-width="0.772983" stroke-linecap="round" stroke-linejoin="round"/>
<path d="M238.697 106.162C238.697 106.162 233.257 104.176 234.245 97.2375C235.232 90.2992 241.174 93.7684 241.174 93.7684C241.174 93.7684 235.215 85.8328 247.363 84.1025C259.51 82.3722 268.414 93.274 271.385 105.412C274.356 117.55 255.535 118.794 258.259 127.974C260.983 137.154 271.632 147.579 269.895 160.202C268.159 172.826 250.836 179.807 242.911 173.09C234.985 166.373 231.768 155.992 236.254 146.547C240.74 137.103 243.183 125.971 244.417 120.976C245.652 115.981 238.697 106.162 238.697 106.162Z" fill="#2E353A" stroke="#2E353A" stroke-width="0.772983" stroke-linecap="round" stroke-linejoin="round"/>
<path d="M258.174 115.436C250.725 112.453 246.895 100.306 246.895 93.4874C246.895 86.6685 256.471 90.078 256.471 90.078C256.471 90.078 247.107 91.7827 251.789 100.946C256.471 110.109 264.771 112.879 269.027 110.109" stroke="white" stroke-width="0.579737" stroke-linecap="round" stroke-linejoin="round"/>
<path d="M256.684 122.042C256.684 122.042 250.087 124.172 252.002 132.483C253.917 140.794 268.601 151.235 264.345 161.89C260.089 172.545 252.64 176.806 243.702 173.61" stroke="white" stroke-width="0.579737" stroke-linecap="round" stroke-linejoin="round"/>
<path d="M253.492 123.747C253.492 123.747 246.256 126.73 245.405 137.385C244.554 148.039 253.279 157.202 249.236 162.529C245.192 167.857 238.595 167.218 236.467 164.021" stroke="white" stroke-width="0.579737" stroke-linecap="round" stroke-linejoin="round"/>
<path d="M236.969 117.814C236.969 117.814 237.709 120.542 235.266 124.761C232.823 128.98 231.555 129.96 231.555 129.96L240.467 129.219L246.162 118.803C246.162 118.803 237.462 119.553 236.969 117.814Z" fill="white" stroke="#2E353A" stroke-width="0.772983" stroke-linecap="round" stroke-linejoin="round"/>
<path d="M245.881 94.7573C245.881 94.7573 237.216 102.693 235.479 109.631C233.742 116.57 235.973 121.036 239.199 121.036C242.425 121.036 249.099 118.308 249.099 118.308C249.099 118.308 251.082 120.013 253.057 119.058C253.623 118.785 254.105 118.364 254.453 117.841C254.802 117.318 255.005 116.711 255.041 116.084C255.041 116.084 241.421 102.693 245.881 94.7573Z" fill="white" stroke="#2E353A" stroke-width="0.772983" stroke-linecap="round" stroke-linejoin="round"/>
<path d="M242.213 106.664C241.617 107.423 240.902 107.849 240.604 107.619C240.306 107.389 240.544 106.588 241.14 105.829C241.736 105.07 242.451 104.644 242.741 104.874C243.03 105.105 242.8 105.906 242.213 106.664Z" fill="#2E353A"/>
<path d="M246.333 110.986C245.745 111.754 245.022 112.18 244.724 111.95C244.426 111.719 244.673 110.918 245.26 110.16C245.848 109.401 246.571 108.966 246.869 109.196C247.167 109.427 246.92 110.228 246.333 110.986Z" fill="#2E353A"/>
<path d="M241.821 108.285C240.811 108.642 239.838 109.098 238.919 109.648C238.144 110.228 239.497 111.004 239.497 111.004" stroke="#2E353A" stroke-width="0.579737" stroke-linecap="round" stroke-linejoin="round"/>
<path d="M237.173 112.938C237.312 113.568 237.652 114.136 238.142 114.556C238.632 114.976 239.245 115.225 239.888 115.265C241.105 115.447 242.346 115.171 243.37 114.489" stroke="#2E353A" stroke-width="0.579737" stroke-linecap="round" stroke-linejoin="round"/>
<path d="M242.017 101.695C242.633 101.599 243.261 101.748 243.768 102.112C244.274 102.475 244.618 103.024 244.724 103.638" stroke="#2E353A" stroke-width="0.579737" stroke-linecap="round" stroke-linejoin="round"/>
<path d="M246.469 106.546C246.469 106.546 249.755 107.705 248.793 110.228" stroke="#2E353A" stroke-width="0.579737" stroke-linecap="round" stroke-linejoin="round"/>
<path d="M213.985 287.35C213.985 287.35 209.406 290.41 207.873 291.169C206.341 291.927 199.863 293.078 199.667 294.8C199.471 296.522 202.91 297.476 206.733 297.476C210.555 297.476 215.126 297.476 217.416 297.86C219.706 298.243 221.238 299.002 222.191 296.522C223.145 294.041 221.613 287.538 221.613 287.538C221.613 287.538 217.612 289.072 213.985 287.35Z" fill="#F5F5F5" stroke="#2E353A" stroke-width="0.772983" stroke-linecap="round" stroke-linejoin="round"/>
<path d="M215.696 219.323C215.696 219.323 213.032 231.742 213.032 235.757C213.032 239.771 214.555 265.76 214.939 273.014C215.124 277.813 214.804 282.618 213.985 287.351C213.985 287.351 217.228 288.876 218.565 288.876C219.901 288.876 221.612 287.538 221.612 287.538C221.612 287.538 225.435 270.721 225.435 261.745C225.435 252.77 226.192 247.605 225.435 241.868C224.677 236.132 222.03 225.63 222.949 221.803C223.868 217.976 218.565 213.586 215.696 219.323Z" fill="#2E353A" stroke="#2E353A" stroke-width="0.772983" stroke-linecap="round" stroke-linejoin="round"/>
<path d="M215.671 164.447C215.671 164.447 212.419 186.489 212.419 202.846C212.419 219.203 219.357 238.799 221.085 241.527C222.813 244.254 237.923 271.522 241.387 277.224C243.839 281.548 245.868 286.098 247.448 290.811C248.657 291.183 249.901 291.432 251.16 291.553C252.402 291.553 254.131 290.069 254.131 290.069C254.131 290.069 246.095 258.625 242.877 250.451C239.659 242.277 233.002 235.825 231.274 232.637C229.546 229.449 228.797 217.013 228.797 217.013C228.797 217.013 238.944 200.903 240.715 192.226C242.485 183.549 237.71 173.823 235.726 170.414C234.43 168.089 233.273 165.69 232.262 163.228C232.262 163.228 221.868 169.382 215.671 164.447Z" fill="#2E353A" stroke="#2E353A" stroke-width="0.772983" stroke-linecap="round" stroke-linejoin="round"/>
<path d="M234.491 155.497C234.491 155.497 240.68 136.412 242.153 131.946C243.625 127.479 241.404 125.749 234.721 126.491C228.039 127.232 216.402 132.457 215.909 138.143C215.415 143.828 217.611 147.067 217.611 149.795C217.611 152.522 213.695 164.447 216.675 166.902C219.654 169.356 229.052 168.606 231.776 165.197C234.5 161.787 234.491 155.497 234.491 155.497Z" fill="#F5F5F5" stroke="#2E353A" stroke-width="0.772983" stroke-linecap="round" stroke-linejoin="round"/>
<path d="M236.407 128.306C236.766 131.425 235.999 134.569 234.245 137.171C231.274 141.876 224.592 140.146 225.086 134.938C225.579 129.73 231.879 125.408 236.407 128.306Z" fill="white" stroke="#2E353A" stroke-width="0.772983" stroke-linecap="round" stroke-linejoin="round"/>
<path d="M232.185 135.688C232.99 135.559 233.757 135.252 234.429 134.789C235.1 134.326 235.661 133.719 236.068 133.012C236.476 132.305 236.721 131.515 236.786 130.701C236.85 129.887 236.732 129.069 236.441 128.306C236.257 127.78 235.937 127.313 235.514 126.95C235.091 126.588 234.58 126.344 234.032 126.243C229.776 125.502 211.252 126.985 206.545 126.491C201.838 125.996 184.021 115.086 179.305 110.875C174.589 106.664 172.869 104.431 172.869 102.692C172.869 100.954 171.627 96.9901 170.639 95.7541C169.652 94.5182 167.915 92.0292 167.915 92.0292C167.915 92.0292 166.213 92.0293 166.434 93.0265C166.837 94.14 167.332 95.2177 167.915 96.2485C167.915 96.2485 162.961 93.2737 161.726 91.9866C161.602 91.8153 161.444 91.6717 161.261 91.5653C161.079 91.4589 160.876 91.3919 160.666 91.3686C160.456 91.3453 160.243 91.3663 160.042 91.4301C159.84 91.494 159.654 91.5994 159.496 91.7394L162.22 94.7142C162.22 94.7142 161.973 96.7003 163.923 99.9222C165.397 102.123 167.24 104.052 169.371 105.625C169.371 105.625 179.271 117.276 186.702 123.72C194.134 130.164 201.054 134.136 207.252 135.125C212.717 136.046 221.246 137.691 232.185 135.688Z" fill="white" stroke="#2E353A" stroke-width="0.772983" stroke-linecap="round" stroke-linejoin="round"/>
<path d="M247.482 290.811C247.482 290.811 243.566 294.997 240.894 296.71C238.221 298.423 234.782 299.582 235.36 301.108C235.939 302.634 243.022 302.446 246.427 302.25C249.832 302.054 256.727 298.841 257.876 298.048C259.025 297.255 254.165 290.07 254.165 290.07C254.165 290.07 250.445 292.167 247.482 290.811Z" fill="#F5F5F5" stroke="#2E353A" stroke-width="0.772983" stroke-linecap="round" stroke-linejoin="round"/>
<path d="M246.469 302.25C249.874 302.062 256.769 298.84 257.918 298.048C258.233 297.835 258.08 297.119 257.705 296.207C253.829 298.131 249.737 299.585 245.515 300.537C239.931 301.73 236.765 301.167 235.343 300.716C235.338 300.849 235.359 300.982 235.403 301.108C235.93 302.633 242.987 302.446 246.469 302.25Z" fill="#2E353A" stroke="#2E353A" stroke-width="0.772983" stroke-linecap="round" stroke-linejoin="round"/>
<path d="M222.191 296.564C222.361 296.058 222.456 295.53 222.472 294.996C220.957 296.223 219.859 295.644 217.416 295.797C214.36 295.993 213.219 295.993 206.92 295.993C204.454 296.054 201.998 295.647 199.684 294.792C199.688 294.808 199.688 294.826 199.684 294.843C199.497 296.547 202.927 297.519 206.75 297.519C210.572 297.519 215.143 297.519 217.433 297.903C219.723 298.286 221.238 299.002 222.191 296.564Z" fill="#2E353A" stroke="#2E353A" stroke-width="0.772983" stroke-linecap="round" stroke-linejoin="round"/>
<path d="M228.797 216.978C228.797 216.978 229.503 205.181 230.806 202.846C232.108 200.51 235.207 197.399 237.275 195.583" stroke="white" stroke-width="0.579737" stroke-linecap="round" stroke-linejoin="round"/>
</svg>
